# xmcd CD database file
#
# Track frame offsets:
#	150
#	25727
#	53512
#	81217
#	105445
#	133855
#	151092
#	176917
#	202667
#	227252
#
# Disc length: 3322 seconds
#
# Revision: 0
# Processed by: cddbd v1.5PL3 Copyright (c) Steve Scherf et al.
# Submitted via: CDex 1.51
#
DISCID=6a0cf80a
DTITLE=Etta Jones - Sings Sammy Cahn
DYEAR=1900
DGENRE=Blues
TTITLE0=It's Magic
TTITLE1=Second Time Around
TTITLE2=Until The Real Thing Comes Along
TTITLE3=I Should Care
TTITLE4=I'll Walk Alone
TTITLE5=Saturday Night
TTITLE6=All the Way
TTITLE7=It's You Or No One
TTITLE8=It's Been A Long, Long Time
TTITLE9=Put 'Em In A Box
EXTD=
EXTT0=
EXTT1=
EXTT2=
EXTT3=
EXTT4=
EXTT5=
EXTT6=
EXTT7=
EXTT8=
EXTT9=
PLAYORDER=
